<svg viewBox="0 0 69 67" fill="none" xmlns="http://www.w3.org/2000/svg">
<path d="M63.25 23.875V37.625M40.8739 10.125C38.8821 9.22065 36.7048 8.75146 34.5 8.75146C32.2952 8.75146 30.1179 9.22065 28.1261 10.125L8.8895 18.7518C4.7035 20.6273 4.7035 27.1228 8.8895 28.9983L28.1232 37.625C30.1155 38.5298 32.2932 38.9992 34.4986 38.9992C36.7039 38.9992 38.8817 38.5298 40.8739 37.625L60.1105 28.9983C64.2965 27.1228 64.2965 20.6273 60.1105 18.7518L40.8739 10.125Z" stroke="black" stroke-width="1.5" stroke-linecap="round" stroke-linejoin="round"/>
<path d="M14.375 32.125V46.2188C14.375 54.2432 27.8703 58.25 34.5 58.25C41.1297 58.25 54.625 54.2432 54.625 46.2188V32.125" stroke="black" stroke-width="1.5" stroke-linecap="round" stroke-linejoin="round"/>
</svg>
