<svg viewBox="0 0 57 63" fill="none" xmlns="http://www.w3.org/2000/svg">
<path d="M8.66675 48.9373C7.71008 48.9373 6.91675 48.059 6.91675 46.9998V18.5832C6.91675 7.19067 10.0434 3.729 20.3334 3.729H36.6667C46.9567 3.729 50.0834 7.19067 50.0834 18.5832V44.4165C50.0834 44.8298 50.0834 45.2173 50.0601 45.6307C49.9901 46.6898 49.1267 47.5165 48.1934 47.439C47.2367 47.3615 46.4901 46.4315 46.5601 45.3723C46.5834 45.0623 46.5834 44.7265 46.5834 44.4165V18.5832C46.5834 9.36067 45.0201 7.604 36.6667 7.604H20.3334C11.9801 7.604 10.4167 9.36067 10.4167 18.5832V46.9998C10.4167 48.059 9.62341 48.9373 8.66675 48.9373Z" fill="#25272C" stroke="black" stroke-width="1.5"/>
<path d="M40.1667 59.2708H16.8334C11.3734 59.2708 6.91675 54.3367 6.91675 48.2917V46.6125C6.91675 41.4717 10.6967 37.3125 15.3167 37.3125H48.3334C49.2901 37.3125 50.0834 38.1908 50.0834 39.25V48.2917C50.0834 54.3367 45.6267 59.2708 40.1667 59.2708ZM15.3167 41.1875C12.6101 41.1875 10.4167 43.6158 10.4167 46.6125V48.2917C10.4167 52.2183 13.2867 55.3958 16.8334 55.3958H40.1667C43.7134 55.3958 46.5834 52.2183 46.5834 48.2917V41.1875H15.3167Z" fill="#25272C" stroke="black" stroke-width="1.5"/>
<path d="M37.8334 20.521H19.1667C18.2101 20.521 17.4167 19.6427 17.4167 18.5835C17.4167 17.5243 18.2101 16.646 19.1667 16.646H37.8334C38.7901 16.646 39.5834 17.5243 39.5834 18.5835C39.5834 19.6427 38.7901 20.521 37.8334 20.521Z" fill="#25272C" stroke="black" stroke-width="1.5"/>
<path d="M30.8334 29.5625H19.1667C18.2101 29.5625 17.4167 28.6842 17.4167 27.625C17.4167 26.5658 18.2101 25.6875 19.1667 25.6875H30.8334C31.7901 25.6875 32.5834 26.5658 32.5834 27.625C32.5834 28.6842 31.7901 29.5625 30.8334 29.5625Z" fill="#25272C" stroke="black" stroke-width="1.5"/>
</svg>
