<svg width="24" height="25" viewBox="0 0 24 25" fill="none" xmlns="http://www.w3.org/2000/svg">
<path d="M16.25 21.5V16.735C16.2497 16.526 16.2083 16.3192 16.128 16.1262C16.0477 15.9333 15.9302 15.7581 15.7822 15.6106C15.6341 15.4631 15.4585 15.3462 15.2652 15.2667C15.072 15.1872 14.865 15.1465 14.656 15.147H9.344C9.13503 15.1465 8.92801 15.1872 8.73477 15.2667C8.54153 15.3462 8.36586 15.4631 8.21782 15.6106C8.06978 15.7581 7.95226 15.9333 7.87199 16.1262C7.79171 16.3192 7.75026 16.526 7.75 16.735V21.5M16.25 3.78501V6.14701C16.2497 6.35598 16.2083 6.56285 16.128 6.75578C16.0477 6.94872 15.9302 7.12394 15.7822 7.27143C15.6341 7.41891 15.4585 7.53577 15.2652 7.61531C15.072 7.69486 14.865 7.73553 14.656 7.73501H9.344C9.13503 7.73553 8.92801 7.69486 8.73477 7.61531C8.54153 7.53577 8.36586 7.41891 8.21782 7.27143C8.06978 7.12394 7.95226 6.94872 7.87199 6.75578C7.79171 6.56285 7.75026 6.35598 7.75 6.14701V3.50001M16.25 3.78501C15.8353 3.59707 15.3853 3.4999 14.93 3.50001H7.75M16.25 3.78501C16.594 3.94101 16.911 4.15901 17.184 4.43001L19.566 6.80501C19.8618 7.09933 20.0965 7.44914 20.2568 7.83439C20.4171 8.21964 20.4997 8.63275 20.5 9.05001V18.322C20.4995 18.74 20.4166 19.1537 20.2562 19.5396C20.0957 19.9256 19.8608 20.2761 19.5648 20.5712C19.2689 20.8663 18.9177 21.1002 18.5313 21.2596C18.1449 21.419 17.731 21.5007 17.313 21.5H6.688C6.27005 21.5008 5.85604 21.4192 5.46961 21.26C5.08319 21.1007 4.73192 20.8669 4.43587 20.5719C4.13983 20.2769 3.9048 19.9264 3.74422 19.5406C3.58364 19.1547 3.50066 18.741 3.5 18.323V6.67601C3.50079 6.25814 3.58387 5.84452 3.74451 5.45876C3.90515 5.07301 4.14019 4.72267 4.43623 4.42775C4.73226 4.13283 5.08348 3.89911 5.46984 3.73992C5.8562 3.58074 6.27013 3.49922 6.688 3.50001H7.75" stroke="#EDF6F6" stroke-width="1.5" stroke-linecap="round" stroke-linejoin="round"/>
</svg>
